<svg width="25" height="25" viewBox="0 0 25 25" fill="none" xmlns="http://www.w3.org/2000/svg">
<path id="Vector" d="M15.5833 16.0714C21.125 16.0714 25 12.7535 25 7.98387C25 3.21429 21.125 0 15.5833 0H4.94792C4.51647 0 4.16667 0.299833 4.16667 0.669643V12.2004H0.78125C0.349805 12.2004 0 12.5003 0 12.8701V15.4018C0 15.7716 0.349805 16.0714 0.78125 16.0714H4.16667V17.8571H0.78125C0.349805 17.8571 0 18.157 0 18.5268V20.7589C0 21.1287 0.349805 21.4286 0.78125 21.4286H4.16667V24.3304C4.16667 24.7002 4.51647 25 4.94792 25H8.76042C9.19186 25 9.54167 24.7002 9.54167 24.3304V21.4286H20.0521C20.4835 21.4286 20.8333 21.1287 20.8333 20.7589V18.5268C20.8333 18.157 20.4835 17.8571 20.0521 17.8571H9.54167V16.0714H15.5833ZM9.54167 3.83638H14.6667C17.7083 3.83638 19.5417 5.46083 19.5417 7.98387C19.5417 10.5415 17.7083 12.2004 14.5833 12.2004H9.54167V3.83638Z" fill="#424242"/>
</svg>
