<svg width="30" height="30" viewBox="0 0 30 30" fill="none" xmlns="http://www.w3.org/2000/svg">
<g id="clipboard_120835 1">
<g id="Group">
<g id="Group_2">
<g id="Group_3">
<path id="Vector" d="M8.33891 6.66016C8.59769 6.66016 8.80766 6.87012 8.80766 7.12891C8.80766 7.38769 8.59769 7.59766 8.33891 7.59766H7.59769V26.0352H22.4024V7.59766H21.6602C21.4014 7.59766 21.1914 7.38769 21.1914 7.12891C21.1914 6.87012 21.4014 6.66016 21.6602 6.66016H22.8594H22.8711C23.1299 6.66016 23.3399 6.87012 23.3399 7.12891V26.4921V26.5049C23.3399 26.7636 23.1299 26.9736 22.8711 26.9736H7.14065H7.12891C6.87012 26.9736 6.66016 26.7636 6.66016 26.5049V7.14065V7.12891C6.66016 6.87012 6.87012 6.66016 7.12891 6.66016H8.33891Z" fill="black"/>
<path id="Vector_2" d="M12.5781 1.81838C12.8359 1.81838 13.0449 2.02735 13.0449 2.28516C13.0449 2.54296 12.8359 2.75194 12.5781 2.75194H11.2305V6.66016H18.7695V2.75194L17.4219 2.75099C17.164 2.75099 16.9551 2.54197 16.9551 2.28417C16.9551 2.02637 17.1641 1.81739 17.4219 1.81739L19.1904 1.81838L19.2383 1.81641C19.4971 1.81641 19.707 2.02637 19.707 2.28516V7.11716V7.12891C19.707 7.38769 19.4971 7.59766 19.2383 7.59766H10.7735H10.7617C10.5029 7.59766 10.293 7.38769 10.293 7.12891V2.28516H10.2949C10.2949 2.02735 10.5039 1.81838 10.7617 1.81838H12.5781Z" fill="black"/>
<path id="Vector_3" d="M14.3936 11.8359C14.1348 11.8359 13.9248 11.626 13.9248 11.3672C13.9248 11.1084 14.1348 10.8984 14.3936 10.8984H20.4492C20.708 10.8984 20.918 11.1084 20.918 11.3672C20.918 11.626 20.708 11.8359 20.4492 11.8359H14.3936ZM14.3936 22.7344C14.1348 22.7344 13.9248 22.5244 13.9248 22.2656C13.9248 22.0069 14.1348 21.7969 14.3936 21.7969H20.4492C20.708 21.7969 20.918 22.0069 20.918 22.2656C20.918 22.5244 20.708 22.7344 20.4492 22.7344H14.3936ZM14.3936 19.1015C14.1348 19.1015 13.9248 18.8916 13.9248 18.6328C13.9248 18.374 14.1348 18.164 14.3936 18.164H20.4492C20.708 18.164 20.918 18.374 20.918 18.6328C20.918 18.8916 20.708 19.1015 20.4492 19.1015H14.3936ZM14.3936 15.4687C14.1348 15.4687 13.9248 15.2588 13.9248 15C13.9248 14.7412 14.1348 14.5312 14.3936 14.5312H20.4492C20.708 14.5312 20.918 14.7422 20.918 15C20.918 15.2588 20.708 15.4687 20.4492 15.4687H14.3936Z" fill="black"/>
<path id="Vector_4" d="M9.70728 11.345C9.553 11.1389 9.59497 10.8459 9.80103 10.6907C10.0071 10.5364 10.3 10.5784 10.4544 10.7844L10.762 11.1946L11.7503 9.87621C11.9045 9.67019 12.1985 9.62818 12.4045 9.78246C12.6106 9.93674 12.6526 10.2307 12.4983 10.4358L11.1409 12.2453L11.136 12.2522C11.1096 12.2873 11.0794 12.3186 11.0422 12.3459C10.8362 12.5002 10.5432 12.4583 10.3889 12.2522L9.70728 11.345Z" fill="black"/>
<path id="Vector_5" d="M9.70728 14.9778C9.553 14.7717 9.59497 14.4788 9.80103 14.3235C10.0071 14.1692 10.3 14.2112 10.4544 14.4172L10.762 14.8274L11.7503 13.509C11.9045 13.303 12.1985 13.261 12.4045 13.4153C12.6106 13.5696 12.6526 13.8635 12.4983 14.0696L11.1409 15.8791L11.136 15.886C11.1096 15.9211 11.0794 15.9524 11.0422 15.9797C10.8362 16.134 10.5432 16.0921 10.3889 15.886L9.70728 14.9778Z" fill="black"/>
<path id="Vector_6" d="M9.70728 18.6101C9.553 18.404 9.59497 18.111 9.80103 17.9558C10.0071 17.8015 10.3 17.8435 10.4544 18.0496L10.762 18.4597L11.7503 17.1414C11.9045 16.9353 12.1985 16.8933 12.4045 17.0476C12.6106 17.2018 12.6526 17.4958 12.4983 17.7018L11.1409 19.5114L11.136 19.5182C11.1096 19.5534 11.0794 19.5847 11.0422 19.612C10.8362 19.7663 10.5432 19.7243 10.3889 19.5182L9.70728 18.6101Z" fill="black"/>
<path id="Vector_7" d="M9.70728 22.2434C9.553 22.0374 9.59497 21.7443 9.80103 21.5891C10.0071 21.4349 10.3 21.4768 10.4544 21.6829L10.762 22.093L11.7503 20.7747C11.9045 20.5686 12.1985 20.5266 12.4045 20.6809C12.6106 20.8352 12.6526 21.1291 12.4983 21.3352L11.1409 23.1447L11.136 23.1516C11.1096 23.1867 11.0794 23.218 11.0422 23.2453C10.8362 23.3996 10.5432 23.3576 10.3889 23.1516L9.70728 22.2434Z" fill="black"/>
<path id="Vector_8" d="M8.33982 3.63281C8.59861 3.63281 8.80857 3.84277 8.80857 4.10156C8.80857 4.36035 8.59861 4.57031 8.33982 4.57031H5.31247C5.11031 4.57031 4.9238 4.65429 4.78902 4.78906C4.65425 4.92384 4.57027 5.11035 4.57027 5.31251V28.3203C4.57027 28.5244 4.65327 28.7109 4.78709 28.8437L4.78902 28.8457C4.92183 28.9794 5.10838 29.0625 5.31247 29.0625H24.6875C24.8925 29.0625 25.0781 28.9795 25.2109 28.8457L25.2128 28.8437C25.3466 28.7109 25.4297 28.5244 25.4297 28.3203V5.31251C25.4297 5.10842 25.3467 4.92187 25.2128 4.78906L25.2119 4.78808L25.211 4.78906C25.0762 4.65429 24.8907 4.57031 24.6875 4.57031H21.6602C21.4014 4.57031 21.1914 4.36035 21.1914 4.10156C21.1914 3.84277 21.4014 3.63281 21.6602 3.63281H24.6875C25.1494 3.63281 25.5704 3.82224 25.8741 4.12599L25.8731 4.12698C26.1778 4.43164 26.3672 4.85255 26.3672 5.31251V28.3203C26.3672 28.7803 26.1788 29.2002 25.8741 29.5048L25.8721 29.5068C25.5674 29.8115 25.1475 30 24.6875 30H5.31255C4.85259 30 4.43266 29.8115 4.128 29.5068L4.12603 29.5048C3.8213 29.2002 3.63281 28.7802 3.63281 28.3203V5.31251C3.63281 4.85062 3.82224 4.42971 4.12599 4.12599C4.42974 3.82228 4.85062 3.63281 5.31251 3.63281H8.33982Z" fill="black"/>
<path id="Vector_9" d="M15 0C15.378 0 15.7226 0.155265 15.9716 0.403295L15.9736 0.405265C16.2216 0.65428 16.3769 0.99803 16.3769 1.37693C16.3769 1.75489 16.2216 2.09958 15.9736 2.3486L15.9727 2.34958L15.9736 2.35057C15.7255 2.59958 15.3809 2.75386 15 2.75386C14.6191 2.75386 14.2744 2.5986 14.0263 2.35057C13.7773 2.1025 13.623 1.75682 13.623 1.37693C13.623 0.99803 13.7783 0.65428 14.0273 0.40428L14.0263 0.403295C14.2754 0.155265 14.6201 0 15 0ZM15.3125 1.0664L15.3105 1.06443C15.2314 0.986288 15.122 0.937462 15 0.937462C14.8789 0.937462 14.7685 0.987273 14.6894 1.06636L14.6885 1.06538L14.6875 1.06636C14.6103 1.14352 14.5605 1.25485 14.5605 1.37591C14.5605 1.49697 14.6103 1.60735 14.6894 1.68648C14.7685 1.76557 14.8788 1.81538 14.9999 1.81538C15.121 1.81538 15.2314 1.76557 15.3105 1.68648L15.3115 1.68742C15.3896 1.60833 15.4384 1.49799 15.4384 1.37591C15.4394 1.25587 15.3906 1.14549 15.3125 1.0664Z" fill="black"/>
</g>
</g>
</g>
</g>
</svg>
