<svg width="35" height="35" viewBox="0 0 35 35" fill="none" xmlns="http://www.w3.org/2000/svg">
<g id="group-profile-users_icon-icons.com_73540 1">
<g id="Group">
<g id="Group_2">
<path id="Vector" d="M6.99966 10.5C8.28807 10.5 9.38774 10.0444 10.299 9.13293C11.2106 8.22149 11.6664 7.1215 11.6664 5.83335C11.6664 4.54532 11.2106 3.44534 10.299 2.53376C9.38774 1.62232 8.28801 1.1665 6.99966 1.1665C5.71138 1.1665 4.61165 1.62232 3.7002 2.53376C2.78883 3.44534 2.33301 4.54507 2.33301 5.83335C2.33301 7.12176 2.78883 8.22149 3.7002 9.13293C4.61165 10.0442 5.71138 10.5 6.99966 10.5Z" fill="black"/>
<path id="Vector_2" d="M12.5508 17.7832C13.918 19.15 15.5676 19.8336 17.5001 19.8336C19.4328 19.8336 21.0823 19.15 22.4494 17.7832C23.8163 16.4156 24.5 14.7658 24.5 12.8336C24.5 10.9013 23.8163 9.25165 22.4494 7.88439C21.0823 6.51713 19.4328 5.8335 17.5001 5.8335C15.5676 5.8335 13.9179 6.51725 12.5508 7.88439C11.1838 9.25146 10.5 10.9011 10.5 12.8336C10.5 14.7662 11.1838 16.4158 12.5508 17.7832Z" fill="black"/>
<path id="Vector_3" d="M28.0008 10.5C29.2886 10.5 30.3885 10.0444 31.2999 9.13293C32.2113 8.22149 32.6668 7.1215 32.6668 5.83335C32.6668 4.54532 32.2113 3.44534 31.2999 2.53376C30.3886 1.62232 29.2886 1.1665 28.0008 1.1665C26.712 1.1665 25.6124 1.62232 24.7009 2.53376C23.7897 3.44534 23.334 4.54507 23.334 5.83335C23.334 7.12176 23.7898 8.22149 24.7009 9.13293C25.6124 10.0442 26.712 10.5 28.0008 10.5Z" fill="black"/>
<path id="Vector_4" d="M32.739 10.5005C32.6665 10.5005 32.4021 10.6281 31.9463 10.8833C31.491 11.1387 30.8982 11.3969 30.1692 11.6583C29.4403 11.9193 28.7169 12.05 28.0001 12.05C27.1856 12.05 26.378 11.9104 25.5756 11.6307C25.636 12.0802 25.6665 12.4813 25.6665 12.8338C25.6665 14.523 25.1743 16.0785 24.1895 17.5004C26.1586 17.5614 27.7686 18.339 29.0208 19.8342H31.4634C32.4597 19.8342 33.2983 19.5876 33.9788 19.0955C34.6592 18.6037 34.9997 17.8833 34.9997 16.9355C34.9998 12.6452 34.2467 10.5002 32.739 10.5005Z" fill="black"/>
<path id="Vector_5" d="M30.0154 25.2382C29.8878 24.5271 29.7265 23.8677 29.5321 23.2602C29.3376 22.6523 29.0762 22.0603 28.7486 21.4829C28.4203 20.9061 28.0434 20.4136 27.6181 20.0063C27.1924 19.599 26.6728 19.2743 26.0593 19.031C25.4457 18.7879 24.7679 18.6665 24.0268 18.6665C23.9051 18.6665 23.6439 18.7972 23.2428 19.0585C22.8417 19.3196 22.3985 19.6118 21.9121 19.9334C21.4259 20.255 20.7763 20.5469 19.9616 20.8083C19.1467 21.0696 18.3265 21.2003 17.5006 21.2003C16.6743 21.2003 15.8538 21.0696 15.0396 20.8083C14.2251 20.5469 13.5751 20.255 13.089 19.9334C12.6027 19.6118 12.1593 19.3196 11.7583 19.0585C11.3571 18.7972 11.096 18.6665 10.9743 18.6665C10.2331 18.6665 9.55559 18.7879 8.94181 19.031C8.32803 19.2743 7.80855 19.599 7.38325 20.0063C6.95757 20.4132 6.58118 20.9061 6.25281 21.4829C5.92482 22.0603 5.66355 22.6523 5.46906 23.2602C5.27464 23.8677 5.11381 24.5271 4.98598 25.2382C4.85828 25.9492 4.7733 26.6112 4.73078 27.2252C4.68819 27.839 4.66699 28.4681 4.66699 29.1122C4.66699 30.5702 5.11042 31.7219 5.99754 32.5663C6.88498 33.4106 8.06388 33.8332 9.53407 33.8332H25.4666C26.9369 33.8332 28.1157 33.4106 29.0033 32.5663C29.8904 31.7219 30.334 30.5702 30.334 29.1122C30.334 28.4681 30.3126 27.8392 30.2707 27.2252C30.2275 26.6112 30.1425 25.9491 30.0154 25.2382Z" fill="black"/>
<path id="Vector_6" d="M10.8098 17.4999C9.82539 16.078 9.33331 14.5225 9.3335 12.8333C9.3335 12.4808 9.36396 12.0799 9.42461 11.6303C8.62241 11.9097 7.81428 12.0495 7.00001 12.0495C6.28299 12.0495 5.56009 11.9189 4.83081 11.6578C4.10185 11.3964 3.5092 11.1382 3.05364 10.8828C2.59788 10.6276 2.33336 10.5 2.26051 10.5C0.753481 10.5001 0 12.6451 0 16.935C0 17.8828 0.340315 18.6032 1.02075 19.095C1.70138 19.5871 2.53997 19.8333 3.53621 19.8333H5.97907C7.23095 18.3385 8.84097 17.5609 10.8098 17.4999Z" fill="black"/>
</g>
</g>
</g>
</svg>
