<svg width="35" height="36" viewBox="0 0 35 36" fill="none" xmlns="http://www.w3.org/2000/svg">
<g id="invoice_transaction_bill_receipt_investment_dollar_icon_188468 1">
<path id="Vector" d="M14.1044 20.5845C14.5868 20.8863 15.1325 21.0647 15.6958 21.1049V21.4367C15.6924 21.5129 15.7058 21.5889 15.7349 21.659C15.7641 21.7291 15.8081 21.7915 15.8639 21.8417C15.9576 21.9227 16.0759 21.9673 16.1982 21.9676C16.3199 21.9666 16.438 21.9249 16.5345 21.8488C16.5953 21.8003 16.6441 21.7377 16.6768 21.666C16.7095 21.5944 16.7251 21.5158 16.7225 21.4367V21.0936C17.3077 21.0078 17.7561 20.7927 18.0555 20.4524C18.3912 20.0713 18.5771 19.6501 18.6079 19.205C18.6289 18.9576 18.6158 18.7083 18.5689 18.4646C18.5222 18.1899 18.4215 17.9279 18.2729 17.6947C18.1017 17.4406 17.8801 17.2266 17.6228 17.0668C17.3452 16.8935 17.0407 16.7708 16.7225 16.704V13.8711C16.7924 13.8995 16.8591 13.9355 16.9215 13.9787C17.0662 14.0791 17.1963 14.2004 17.3077 14.3387C17.4047 14.4599 17.4793 14.5983 17.5278 14.7472C17.5774 14.9009 17.6098 15.0599 17.6242 15.2211C17.6591 15.5396 17.8826 15.6634 18.0972 15.6374C18.3119 15.6113 18.4732 15.4454 18.5306 15.1283C18.5142 14.4835 18.3112 13.9569 17.9263 13.566C17.5961 13.2334 17.177 13.0096 16.7225 12.9233V12.4965C16.7251 12.4254 16.7136 12.3545 16.6889 12.288C16.6642 12.2216 16.6267 12.1609 16.5787 12.1097C16.5307 12.0585 16.4731 12.0177 16.4094 11.9899C16.3458 11.9621 16.2773 11.9478 16.2081 11.9478C16.139 11.9478 16.0705 11.9621 16.0068 11.9899C15.9432 12.0177 15.8856 12.0585 15.8376 12.1097C15.7896 12.1609 15.7521 12.2216 15.7274 12.288C15.7026 12.3545 15.6912 12.4254 15.6937 12.4965V12.867C15.416 12.8957 15.1429 12.9605 14.8809 13.0597C14.5691 13.1743 14.2838 13.3541 14.0428 13.5877C13.8172 13.8087 13.6401 14.0767 13.5233 14.3738C13.4076 14.6813 13.3636 15.0125 13.3948 15.3406C13.4474 15.924 13.7167 16.464 14.1468 16.8481C14.5521 17.1955 15.0867 17.4106 15.6917 17.481V20.195C15.222 20.1451 14.8536 20.0171 14.5938 19.8146C14.3124 19.6115 14.1098 19.3127 14.0217 18.9709C14.0005 18.7803 13.8644 18.5736 13.5589 18.5645C13.494 18.5538 13.4276 18.5601 13.3658 18.5828C13.304 18.6056 13.2488 18.644 13.2053 18.6946C13.1618 18.7452 13.1314 18.8062 13.1169 18.8721C13.1025 18.938 13.1045 19.0065 13.1227 19.0714C13.1722 19.381 13.2853 19.6761 13.4546 19.9371C13.6239 20.198 13.8454 20.4188 14.1044 20.5845ZM14.6512 16.0234C14.5531 15.9302 14.4761 15.8159 14.4257 15.6887C14.3816 15.5588 14.3525 15.424 14.3388 15.2872C14.326 15.0941 14.3535 14.9005 14.4195 14.7193C14.4856 14.5381 14.5886 14.3735 14.7217 14.2367C14.9479 13.9927 15.274 13.8388 15.6917 13.7769V16.5479C15.5047 16.5144 15.323 16.4548 15.1516 16.3707C14.9694 16.2816 14.8013 16.1645 14.6533 16.0234H14.6512ZM17.4868 19.7499C17.3814 19.8718 17.2548 19.9724 17.1136 20.0467C16.9901 20.1111 16.8574 20.1551 16.7205 20.1767V17.6532C17.0336 17.751 17.2674 17.8902 17.4219 18.0751C17.6269 18.3191 17.7199 18.6777 17.7083 19.172V19.179C17.7031 19.2665 17.6846 19.3526 17.6536 19.4342C17.6171 19.5484 17.5614 19.655 17.4888 19.7492L17.4868 19.7499Z" fill="black"/>
<path id="Vector_2" d="M22.5986 10.2904H25.48L22.5986 7.32812V10.2904Z" fill="black"/>
<path id="Vector_3" d="M21.2921 10.9622V6.37646H5.32812V32.7894H26.404V11.6344H21.9436C21.7706 11.6339 21.6049 11.5628 21.4828 11.4368C21.3607 11.3108 21.2921 11.1402 21.2921 10.9622ZM15.8657 11.3841C16.9396 11.3841 17.9894 11.7117 18.8823 12.3254C19.7753 12.939 20.4712 13.8113 20.8822 14.8318C21.2932 15.8523 21.4007 16.9752 21.1912 18.0586C20.9817 19.142 20.4645 20.1371 19.7052 20.9182C18.9458 21.6992 17.9783 22.2312 16.925 22.4467C15.8717 22.6621 14.78 22.5515 13.7878 22.1288C12.7957 21.7061 11.9477 20.9903 11.351 20.0719C10.7544 19.1534 10.4359 18.0736 10.4359 16.969C10.4355 16.2353 10.5756 15.5087 10.8483 14.8307C11.1209 14.1527 11.5208 13.5366 12.0251 13.0176C12.5293 12.4987 13.128 12.087 13.787 11.8061C14.446 11.5252 15.1524 11.3806 15.8657 11.3806V11.3841ZM22.7017 29.4284H9.02363C8.85388 29.4228 8.69291 29.3494 8.57477 29.2239C8.45663 29.0984 8.39058 28.9306 8.39058 28.7559C8.39058 28.5812 8.45663 28.4133 8.57477 28.2878C8.69291 28.1623 8.85388 28.089 9.02363 28.0833H22.7023C22.8721 28.089 23.0331 28.1623 23.1512 28.2878C23.2693 28.4133 23.3354 28.5812 23.3354 28.7559C23.3354 28.9306 23.2693 29.0984 23.1512 29.2239C23.0331 29.3494 22.8721 29.4228 22.7023 29.4284H22.7017ZM23.3545 25.7827C23.3545 25.9609 23.2857 26.1317 23.1633 26.2578C23.0409 26.3838 22.8749 26.4547 22.7017 26.4549H9.02363C8.85031 26.4549 8.68409 26.3841 8.56153 26.258C8.43897 26.132 8.37012 25.961 8.37012 25.7827C8.37012 25.6044 8.43897 25.4335 8.56153 25.3074C8.68409 25.1813 8.85031 25.1105 9.02363 25.1105H22.7023C22.8754 25.11 23.0417 25.1801 23.1646 25.3054C23.2875 25.4308 23.357 25.6012 23.3579 25.7792L23.3545 25.7827Z" fill="black"/>
<path id="Vector_4" d="M8.59473 3.21045V5.03154H21.9433C21.9712 5.03523 21.9989 5.04111 22.026 5.04912C22.0549 5.05254 22.0835 5.05842 22.1114 5.0667C22.2218 5.09334 22.3234 5.14936 22.4061 5.22912L27.5173 10.4864C27.5946 10.5716 27.649 10.676 27.6752 10.7894C27.6829 10.8185 27.6886 10.8481 27.6923 10.878C27.6995 10.9058 27.705 10.9339 27.7087 10.9624V29.6015H29.6706V3.21045H8.59473Z" fill="black"/>
</g>
</svg>
