<svg width="30" height="30" viewBox="0 0 30 30" fill="none" xmlns="http://www.w3.org/2000/svg">
<g id="kanban_fill_icon_159491 1" clip-path="url(#clip0_170_263)">
<path id="Vector" fill-rule="evenodd" clip-rule="evenodd" d="M4.6875 0C3.69294 0 2.73911 0.395088 2.03585 1.09835C1.33259 1.80161 0.9375 2.75544 0.9375 3.75V26.25C0.9375 27.2446 1.33259 28.1984 2.03585 28.9016C2.73911 29.6049 3.69294 30 4.6875 30H25.3125C26.3071 30 27.2609 29.6049 27.9641 28.9016C28.6674 28.1984 29.0625 27.2446 29.0625 26.25V3.75C29.0625 2.75544 28.6674 1.80161 27.9641 1.09835C27.2609 0.395088 26.3071 0 25.3125 0L4.6875 0ZM14.0625 3.75C13.5652 3.75 13.0883 3.94754 12.7367 4.29917C12.385 4.65081 12.1875 5.12772 12.1875 5.625V11.25C12.1875 11.7473 12.385 12.2242 12.7367 12.5758C13.0883 12.9275 13.5652 13.125 14.0625 13.125H15.9375C16.4348 13.125 16.9117 12.9275 17.2633 12.5758C17.615 12.2242 17.8125 11.7473 17.8125 11.25V5.625C17.8125 5.12772 17.615 4.65081 17.2633 4.29917C16.9117 3.94754 16.4348 3.75 15.9375 3.75H14.0625ZM4.6875 5.625C4.6875 5.12772 4.88504 4.65081 5.23667 4.29917C5.58831 3.94754 6.06522 3.75 6.5625 3.75H8.4375C8.93478 3.75 9.41169 3.94754 9.76332 4.29917C10.115 4.65081 10.3125 5.12772 10.3125 5.625V18.75C10.3125 19.2473 10.115 19.7242 9.76332 20.0758C9.41169 20.4275 8.93478 20.625 8.4375 20.625H6.5625C6.06522 20.625 5.58831 20.4275 5.23667 20.0758C4.88504 19.7242 4.6875 19.2473 4.6875 18.75V5.625ZM21.5625 3.75C21.0652 3.75 20.5883 3.94754 20.2367 4.29917C19.885 4.65081 19.6875 5.12772 19.6875 5.625V24.375C19.6875 24.8723 19.885 25.3492 20.2367 25.7008C20.5883 26.0525 21.0652 26.25 21.5625 26.25H23.4375C23.9348 26.25 24.4117 26.0525 24.7633 25.7008C25.115 25.3492 25.3125 24.8723 25.3125 24.375V5.625C25.3125 5.12772 25.115 4.65081 24.7633 4.29917C24.4117 3.94754 23.9348 3.75 23.4375 3.75H21.5625Z" fill="black"/>
</g>
<defs>
<clipPath id="clip0_170_263">
<rect width="30" height="30" fill="white"/>
</clipPath>
</defs>
</svg>
