<svg width="45" height="45" viewBox="0 0 45 45" fill="none" xmlns="http://www.w3.org/2000/svg">
<g id="task_120291 1">
<g id="Group">
<path id="Vector" d="M18.75 8.4375C18.75 8.95527 18.3303 9.375 17.8125 9.375C17.2947 9.375 16.875 8.95527 16.875 8.4375C16.875 6.8842 18.1342 5.625 19.6875 5.625H25.3125C26.8658 5.625 28.125 6.8842 28.125 8.4375C28.125 8.95527 27.7053 9.375 27.1875 9.375C26.6697 9.375 26.25 8.95527 26.25 8.4375C26.25 7.91973 25.8303 7.5 25.3125 7.5H19.6875C19.1697 7.5 18.75 7.91973 18.75 8.4375ZM12.1875 7.5C12.7053 7.5 13.125 7.91973 13.125 8.4375C13.125 8.95527 12.7053 9.375 12.1875 9.375C10.6342 9.375 9.375 10.6342 9.375 12.1875V34.6875C9.375 36.2408 10.6342 37.5 12.1875 37.5H32.8125C34.3658 37.5 35.625 36.2408 35.625 34.6875V12.1875C35.625 10.6342 34.3658 9.375 32.8125 9.375C32.2947 9.375 31.875 8.95527 31.875 8.4375C31.875 7.91973 32.2947 7.5 32.8125 7.5C35.4013 7.5 37.5 9.59867 37.5 12.1875V34.6875C37.5 37.2763 35.4013 39.375 32.8125 39.375H12.1875C9.59867 39.375 7.5 37.2763 7.5 34.6875V12.1875C7.5 9.59867 9.59867 7.5 12.1875 7.5Z" fill="black"/>
<path id="Vector_2" d="M28.3996 17.1496C28.7657 16.7835 29.3593 16.7835 29.7254 17.1496C30.0915 17.5157 30.0915 18.1093 29.7254 18.4754L20.3504 27.8504C19.9843 28.2165 19.3907 28.2165 19.0246 27.8504L15.2746 24.1004C14.9085 23.7343 14.9085 23.1407 15.2746 22.7746C15.6407 22.4085 16.2343 22.4085 16.6004 22.7746L19.6875 25.8617L28.3996 17.1496Z" fill="black"/>
</g>
</g>
</svg>
