<svg width="30" height="30" viewBox="0 0 30 30" fill="none" xmlns="http://www.w3.org/2000/svg">
<g id="user_person_profile_avatar_icon_190943 1" clip-path="url(#clip0_174_599)">
<path id="Vector" d="M14.9996 0.600098C12.1516 0.600098 9.36747 1.44464 6.9994 3.02694C4.63134 4.60923 2.78565 6.8582 1.69575 9.48946C0.605849 12.1207 0.320681 15.0161 0.876308 17.8094C1.43194 20.6027 2.8034 23.1686 4.81728 25.1824C6.83115 27.1963 9.39699 28.5678 12.1903 29.1234C14.9836 29.679 17.879 29.3939 20.5103 28.304C23.1415 27.2141 25.3905 25.3684 26.9728 23.0003C28.5551 20.6322 29.3996 17.8482 29.3996 15.0001C29.3996 11.181 27.8825 7.51828 25.182 4.81776C22.4814 2.11724 18.8187 0.600098 14.9996 0.600098ZM14.9996 28.2001C12.3889 28.2001 9.83682 27.4259 7.66609 25.9755C5.49536 24.5251 3.80348 22.4635 2.80441 20.0515C1.80533 17.6395 1.54393 14.9855 2.05325 12.4249C2.56258 9.86436 3.81975 7.51234 5.66581 5.66629C7.51186 3.82024 9.86388 2.56306 12.4244 2.05373C14.985 1.54441 17.6391 1.80581 20.051 2.80489C22.463 3.80396 24.5246 5.49584 25.975 7.66657C27.4255 9.8373 28.1996 12.3894 28.1996 15.0001C28.1996 18.501 26.8089 21.8584 24.3334 24.3339C21.8579 26.8094 18.5005 28.2001 14.9996 28.2001Z" fill="black"/>
<path id="Vector_2" d="M15.0002 15.2461C12.9315 15.2461 10.9475 16.0679 9.48476 17.5307C8.02198 18.9934 7.2002 20.9774 7.2002 23.0461C7.2002 23.2052 7.26341 23.3578 7.37593 23.4704C7.48845 23.5829 7.64107 23.6461 7.8002 23.6461C7.95933 23.6461 8.11194 23.5829 8.22446 23.4704C8.33698 23.3578 8.4002 23.2052 8.4002 23.0461C8.4002 21.2957 9.09555 19.6169 10.3333 18.3792C11.571 17.1414 13.2498 16.4461 15.0002 16.4461C16.7506 16.4461 18.4294 17.1414 19.6671 18.3792C20.9048 19.6169 21.6002 21.2957 21.6002 23.0461C21.6002 23.2052 21.6634 23.3578 21.7759 23.4704C21.8885 23.5829 22.0411 23.6461 22.2002 23.6461C22.3593 23.6461 22.5119 23.5829 22.6245 23.4704C22.737 23.3578 22.8002 23.2052 22.8002 23.0461C22.8002 22.0218 22.5984 21.0075 22.2065 20.0612C21.8145 19.1148 21.2399 18.255 20.5156 17.5307C19.7913 16.8064 18.9315 16.2318 17.9851 15.8398C17.0388 15.4478 16.0245 15.2461 15.0002 15.2461Z" fill="black"/>
<path id="Vector_3" d="M15 14.2261C15.5522 14.2113 16.096 14.0878 16.6003 13.8626C17.1046 13.6374 17.5596 13.3149 17.9391 12.9136C18.3187 12.5124 18.6153 12.0402 18.8121 11.5241C19.0089 11.008 19.102 10.4582 19.086 9.90608C19.1028 9.35348 19.0103 8.80301 18.8139 8.28623C18.6175 7.76946 18.3209 7.29655 17.9413 6.89464C17.5617 6.49273 17.1065 6.16971 16.6017 5.94413C16.097 5.71854 15.5527 5.59483 15 5.58008C14.4474 5.59483 13.9031 5.71854 13.3984 5.94413C12.8936 6.16971 12.4384 6.49273 12.0588 6.89464C11.6792 7.29655 11.3826 7.76946 11.1862 8.28623C10.9897 8.80301 10.8973 9.35348 10.914 9.90608C10.8981 10.4582 10.9911 11.008 11.1879 11.5241C11.3847 12.0402 11.6814 12.5124 12.0609 12.9136C12.4405 13.3149 12.8954 13.6374 13.3998 13.8626C13.9041 14.0878 14.4479 14.2113 15 14.2261ZM15 6.78008C15.3952 6.79474 15.7835 6.88736 16.1427 7.05262C16.5018 7.21787 16.8248 7.45249 17.093 7.743C17.3612 8.0335 17.5694 8.37416 17.7055 8.74538C17.8416 9.1166 17.9029 9.51106 17.886 9.90608C17.9021 10.3006 17.8401 10.6944 17.7037 11.0649C17.5672 11.4355 17.359 11.7754 17.0908 12.0653C16.8227 12.3551 16.5 12.5892 16.1412 12.7541C15.7824 12.919 15.3946 13.0114 15 13.0261C14.6055 13.0114 14.2177 12.919 13.8589 12.7541C13.5001 12.5892 13.1774 12.3551 12.9093 12.0653C12.6411 11.7754 12.4329 11.4355 12.2964 11.0649C12.16 10.6944 12.098 10.3006 12.114 9.90608C12.0972 9.51106 12.1585 9.1166 12.2946 8.74538C12.4307 8.37416 12.6389 8.0335 12.9071 7.743C13.1753 7.45249 13.4982 7.21787 13.8574 7.05262C14.2166 6.88736 14.6049 6.79474 15 6.78008Z" fill="black"/>
</g>
<defs>
<clipPath id="clip0_174_599">
<rect width="30" height="30" fill="white"/>
</clipPath>
</defs>
</svg>
