<svg width="204" height="66" viewBox="0 0 204 66" fill="none" xmlns="http://www.w3.org/2000/svg">
<path d="M80.5586 19.1953H84.1562V36H81.0391L72.7656 25.3242V36H69.1562V19.1953H72.2852L80.5586 29.8828V19.1953ZM95.6758 36V34.8047C95.582 34.9141 95.4492 35.0508 95.2773 35.2148C95.1055 35.3711 94.7266 35.582 94.1406 35.8477C93.5625 36.1055 92.9531 36.2344 92.3125 36.2344C90.9688 36.2344 89.8711 35.7852 89.0195 34.8867C88.1758 33.9805 87.7539 32.7773 87.7539 31.2773V24.2344H90.9883V30.9609C90.9883 31.6172 91.2031 32.1602 91.6328 32.5898C92.0703 33.0195 92.6172 33.2344 93.2734 33.2344C94.0078 33.2344 94.5898 32.9961 95.0195 32.5195C95.457 32.043 95.6758 31.3633 95.6758 30.4805V24.2344H98.9102V36H95.6758ZM103.305 34.4062C102.047 33.1797 101.418 31.75 101.418 30.1172C101.418 28.4844 102.047 27.0586 103.305 25.8398C104.562 24.6133 106.055 24 107.781 24C108.391 24 108.969 24.0859 109.516 24.2578C110.07 24.4219 110.523 24.6211 110.875 24.8555C111.227 25.082 111.539 25.3125 111.812 25.5469C112.086 25.7812 112.285 25.9844 112.41 26.1562L112.586 26.4023L110.547 28.4414C110.484 28.332 110.379 28.1875 110.23 28.0078C110.09 27.8281 109.777 27.5977 109.293 27.3164C108.816 27.0273 108.312 26.8828 107.781 26.8828C106.93 26.8828 106.195 27.1992 105.578 27.832C104.969 28.4648 104.664 29.2305 104.664 30.1289C104.664 31.0195 104.973 31.7812 105.59 32.4141C106.207 33.0469 106.938 33.3633 107.781 33.3633C108.312 33.3633 108.816 33.2344 109.293 32.9766C109.777 32.7188 110.129 32.4609 110.348 32.2031L110.664 31.8047L112.586 33.8438C112.539 33.9062 112.473 33.9961 112.387 34.1133C112.309 34.2227 112.121 34.4141 111.824 34.6875C111.527 34.9531 111.207 35.1914 110.863 35.4023C110.52 35.6055 110.07 35.7969 109.516 35.9766C108.969 36.1484 108.391 36.2344 107.781 36.2344C106.055 36.2344 104.562 35.625 103.305 34.4062ZM118.117 24.2344V36H114.871V24.2344H118.117ZM117.836 19.5703C118.18 19.8984 118.352 20.3359 118.352 20.8828C118.352 21.4219 118.18 21.8555 117.836 22.1836C117.492 22.5117 117.023 22.6758 116.43 22.6758C115.883 22.6758 115.445 22.5117 115.117 22.1836C114.797 21.8555 114.637 21.4219 114.637 20.8828C114.637 20.3359 114.801 19.8984 115.129 19.5703C115.457 19.2422 115.891 19.0781 116.43 19.0781C117.023 19.0781 117.492 19.2422 117.836 19.5703ZM69.1562 43.1953H81.5195V46.4414H72.7656V50.1562H79.5977V53.4023H72.7656V60H69.1562V43.1953ZM90.4961 48.1172V51.3633C90.2539 51.2852 89.8945 51.2422 89.418 51.2344C88.5664 51.2344 87.8906 51.5039 87.3906 52.043C86.8984 52.582 86.6523 53.3555 86.6523 54.3633V60H83.418V48.2344H86.6523V49.6758C86.7461 49.5664 86.8789 49.4258 87.0508 49.2539C87.2227 49.0742 87.5977 48.8398 88.1758 48.5508C88.7617 48.2617 89.375 48.1172 90.0156 48.1172H90.4961ZM98.7812 60V58.8047C98.6875 58.9141 98.5547 59.0508 98.3828 59.2148C98.2188 59.3711 97.8555 59.582 97.293 59.8477C96.7305 60.1055 96.1445 60.2344 95.5352 60.2344C94.3633 60.2344 93.4102 59.9102 92.6758 59.2617C91.9414 58.6055 91.5742 57.8125 91.5742 56.8828C91.5742 55.9219 91.8828 55.1211 92.5 54.4805C93.1172 53.8398 93.9688 53.4219 95.0547 53.2266L98.7812 52.5586C98.7812 52.0664 98.6016 51.6641 98.2422 51.3516C97.8828 51.0391 97.3828 50.8828 96.7422 50.8828C96.2109 50.8828 95.7266 50.9844 95.2891 51.1875C94.8516 51.3828 94.543 51.5859 94.3633 51.7969L94.0938 52.0781L92.3008 50.2852C92.3477 50.2227 92.4102 50.1406 92.4883 50.0391C92.5742 49.9297 92.7578 49.7461 93.0391 49.4883C93.3281 49.2305 93.6406 49.0039 93.9766 48.8086C94.3125 48.6055 94.7539 48.4219 95.3008 48.2578C95.8477 48.0859 96.4062 48 96.9766 48C98.4609 48 99.6719 48.4453 100.609 49.3359C101.547 50.2188 102.016 51.332 102.016 52.6758V60H98.7812ZM96.3789 57.5977C97.1133 57.5977 97.6953 57.3672 98.125 56.9062C98.5625 56.4375 98.7812 55.7891 98.7812 54.9609V54.5977L96.1445 55.0781C95.2617 55.2188 94.8203 55.6602 94.8203 56.4023C94.8203 57.1992 95.3398 57.5977 96.3789 57.5977ZM113.184 59.0391V58.0781C113.152 58.125 113.102 58.1875 113.031 58.2656C112.969 58.3359 112.828 58.4688 112.609 58.6641C112.398 58.8516 112.168 59.0234 111.918 59.1797C111.676 59.3281 111.352 59.4648 110.945 59.5898C110.547 59.707 110.133 59.7656 109.703 59.7656C108.359 59.7656 107.141 59.1836 106.047 58.0195C104.961 56.8477 104.418 55.4688 104.418 53.8828C104.418 52.2969 104.961 50.9219 106.047 49.7578C107.141 48.5859 108.359 48 109.703 48C110.375 48 111.004 48.1406 111.59 48.4219C112.176 48.7031 112.586 48.9766 112.82 49.2422L113.184 49.6758V48.2344H116.418V59.0391C116.418 60.7344 115.824 62.1562 114.637 63.3047C113.457 64.4609 111.973 65.0391 110.184 65.0391C109.512 65.0391 108.867 64.9492 108.25 64.7695C107.633 64.5977 107.121 64.3906 106.715 64.1484C106.309 63.9141 105.953 63.6719 105.648 63.4219C105.344 63.1719 105.129 62.9609 105.004 62.7891L104.781 62.5195L106.82 60.5977C106.898 60.707 107.016 60.8516 107.172 61.0312C107.336 61.2109 107.699 61.4414 108.262 61.7227C108.824 62.0117 109.426 62.1562 110.066 62.1562C111.027 62.1562 111.785 61.875 112.34 61.3125C112.902 60.7578 113.184 60 113.184 59.0391ZM108.543 51.8203C108.035 52.3594 107.781 53.0469 107.781 53.8828C107.781 54.7109 108.035 55.3984 108.543 55.9453C109.059 56.4922 109.684 56.7656 110.418 56.7656C111.16 56.7656 111.805 56.4844 112.352 55.9219C112.906 55.3594 113.184 54.6797 113.184 53.8828C113.184 53.0781 112.906 52.3984 112.352 51.8438C111.805 51.2812 111.16 51 110.418 51C109.684 51 109.059 51.2734 108.543 51.8203ZM126.016 60V58.8047C125.922 58.9141 125.789 59.0508 125.617 59.2148C125.453 59.3711 125.09 59.582 124.527 59.8477C123.965 60.1055 123.379 60.2344 122.77 60.2344C121.598 60.2344 120.645 59.9102 119.91 59.2617C119.176 58.6055 118.809 57.8125 118.809 56.8828C118.809 55.9219 119.117 55.1211 119.734 54.4805C120.352 53.8398 121.203 53.4219 122.289 53.2266L126.016 52.5586C126.016 52.0664 125.836 51.6641 125.477 51.3516C125.117 51.0391 124.617 50.8828 123.977 50.8828C123.445 50.8828 122.961 50.9844 122.523 51.1875C122.086 51.3828 121.777 51.5859 121.598 51.7969L121.328 52.0781L119.535 50.2852C119.582 50.2227 119.645 50.1406 119.723 50.0391C119.809 49.9297 119.992 49.7461 120.273 49.4883C120.562 49.2305 120.875 49.0039 121.211 48.8086C121.547 48.6055 121.988 48.4219 122.535 48.2578C123.082 48.0859 123.641 48 124.211 48C125.695 48 126.906 48.4453 127.844 49.3359C128.781 50.2188 129.25 51.332 129.25 52.6758V60H126.016ZM123.613 57.5977C124.348 57.5977 124.93 57.3672 125.359 56.9062C125.797 56.4375 126.016 55.7891 126.016 54.9609V54.5977L123.379 55.0781C122.496 55.2188 122.055 55.6602 122.055 56.4023C122.055 57.1992 122.574 57.5977 123.613 57.5977Z" fill="white"/>
<path d="M0 61V18.6389H12.9888V61H0Z" fill="white"/>
<path d="M16.7487 30.1611V18.6389H57.7659V30.1611H44.0935V61H30.4211V30.1611H16.7487Z" fill="white"/>
<path d="M11.1875 11.1875H7.5C5.46345 11.1875 3.8125 9.53655 3.8125 7.5C3.8125 5.46345 5.46345 3.8125 7.5 3.8125C9.53655 3.8125 11.1875 5.46345 11.1875 7.5V11.1875Z" stroke="white" stroke-width="7.625"/>
</svg>
