<svg width="36" height="36" viewBox="0 0 36 36" fill="none" xmlns="http://www.w3.org/2000/svg">
<g id="icons8-&#208;&#189;&#208;&#176;&#209;&#129;&#209;&#130;&#209;&#128;&#208;&#190;&#208;&#185;&#208;&#186;&#208;&#184; 1">
<path id="Vector" d="M15.9877 1.43994C15.817 1.44003 15.6519 1.50074 15.5218 1.61123C15.3918 1.72172 15.3052 1.87482 15.2775 2.04322L14.5772 6.33088C13.7351 6.57584 12.9321 6.90638 12.1753 7.31807L8.63719 4.79104C8.49866 4.69212 8.32958 4.64547 8.15993 4.65937C7.99028 4.67327 7.83104 4.74682 7.71047 4.86697L4.90922 7.66541C4.78951 7.7852 4.71586 7.94335 4.7012 8.11207C4.68654 8.28078 4.73181 8.44927 4.82906 8.58791L7.31813 12.1485C6.90009 12.9097 6.56223 13.7173 6.31125 14.5673L2.04188 15.2774C1.87399 15.3057 1.72155 15.3926 1.61162 15.5226C1.50169 15.6526 1.44139 15.8173 1.44141 15.9876V19.9476C1.4411 20.1168 1.50041 20.2808 1.60893 20.4106C1.71745 20.5405 1.86825 20.628 2.03484 20.6578L6.30703 21.4143C6.55665 22.2629 6.89236 23.0709 7.3111 23.8331L4.7911 27.3585C4.69218 27.4971 4.64553 27.6661 4.65943 27.8358C4.67333 28.0054 4.74688 28.1647 4.86703 28.2853L7.66688 31.0865C7.78641 31.2061 7.9442 31.2798 8.1126 31.2947C8.28101 31.3096 8.44929 31.2648 8.58797 31.1681L12.1556 28.6706C12.9146 29.0847 13.7196 29.4176 14.5645 29.6648L15.2775 33.9581C15.3055 34.1262 15.3922 34.279 15.5222 34.3892C15.6523 34.4994 15.8172 34.5599 15.9877 34.5599H19.9477C20.1171 34.5602 20.2812 34.5007 20.4111 34.3919C20.541 34.2831 20.6283 34.132 20.6578 33.9651L21.4214 29.6549C22.2629 29.404 23.064 29.0661 23.8191 28.6495L27.4106 31.1695C27.5493 31.2667 27.7178 31.312 27.8865 31.2973C28.0552 31.2827 28.2133 31.209 28.3331 31.0893L31.133 28.2867C31.2536 28.1657 31.3274 28.0059 31.341 27.8356C31.3547 27.6653 31.3074 27.4957 31.2075 27.3571L28.6467 23.8021C29.0562 23.0507 29.386 22.2543 29.6311 21.4185L33.9638 20.6592C34.1306 20.6297 34.2817 20.5423 34.3905 20.4124C34.4993 20.2825 34.5588 20.1184 34.5586 19.949V15.989C34.5585 15.8183 34.4978 15.6533 34.3873 15.5232C34.2768 15.3931 34.1237 15.3065 33.9553 15.2788L29.6297 14.5715C29.383 13.7367 29.0522 12.9417 28.6425 12.1907L31.1681 8.59213C31.2654 8.45349 31.3107 8.285 31.296 8.11629C31.2813 7.94757 31.2077 7.78942 31.088 7.66963L28.2867 4.86979C28.1658 4.74913 28.0059 4.67538 27.8356 4.66173C27.6654 4.64808 27.4958 4.6954 27.3572 4.79525L23.812 7.34479C23.0567 6.92981 22.255 6.5937 21.4116 6.34494L20.6578 2.03619C20.6286 1.86908 20.5414 1.71763 20.4115 1.60854C20.2816 1.49946 20.1173 1.43975 19.9477 1.43994H15.9877ZM16.6008 2.87994H19.343L20.0602 6.97354C20.084 7.11083 20.1472 7.23825 20.2421 7.34035C20.3369 7.44244 20.4594 7.51481 20.5945 7.54869C21.6475 7.8111 22.6365 8.22706 23.5392 8.77354C23.6599 8.84666 23.7994 8.88271 23.9404 8.87721C24.0814 8.87171 24.2177 8.8249 24.3323 8.7426L27.7017 6.32104L29.6409 8.26025L27.2419 11.6788C27.1617 11.7929 27.1164 11.9277 27.1114 12.067C27.1065 12.2063 27.142 12.3441 27.2138 12.4635C27.7548 13.3642 28.1652 14.3469 28.4273 15.3942C28.4615 15.5306 28.5348 15.654 28.6383 15.7492C28.7417 15.8444 28.8708 15.9072 29.0095 15.9299L33.1186 16.6021V19.3443L29.0011 20.0671C28.8637 20.0914 28.7363 20.1552 28.6345 20.2505C28.5326 20.3459 28.4606 20.4688 28.4273 20.6043C28.1682 21.6502 27.7576 22.6329 27.2166 23.5335C27.1439 23.6542 27.1083 23.7935 27.114 23.9342C27.1198 24.075 27.1667 24.2109 27.2489 24.3253L29.6817 27.7017L27.7425 29.6423L24.3295 27.2474C24.2149 27.1672 24.0794 27.122 23.9396 27.1175C23.7997 27.113 23.6616 27.1494 23.542 27.2221C22.6438 27.7686 21.6538 28.1865 20.6044 28.4526C20.4698 28.4865 20.348 28.5586 20.2534 28.6601C20.1589 28.7616 20.0957 28.8883 20.0714 29.0249L19.3444 33.1199H16.598L15.9202 29.0432C15.8971 28.9045 15.8339 28.7757 15.7385 28.6724C15.643 28.5692 15.5194 28.4962 15.383 28.4624C14.3293 28.2027 13.3359 27.7874 12.427 27.2418C12.3077 27.1704 12.1702 27.135 12.0312 27.14C11.8922 27.145 11.7576 27.1901 11.6438 27.2699L8.2575 29.6423L6.31688 27.6988L8.71031 24.3534C8.79211 24.2388 8.8385 24.1027 8.84375 23.9619C8.849 23.8212 8.81288 23.6821 8.73985 23.5617C8.18831 22.6503 7.77119 21.657 7.50797 20.5987C7.47429 20.4639 7.40234 20.3417 7.30078 20.2469C7.19923 20.1521 7.07241 20.0887 6.93563 20.0643L2.88141 19.3443V16.5979L6.93281 15.9243C7.07131 15.9013 7.20007 15.8384 7.30326 15.7432C7.40645 15.648 7.47956 15.5247 7.5136 15.3885C7.77908 14.3266 8.196 13.3334 8.74547 12.4242C8.81793 12.3048 8.85411 12.1669 8.84962 12.0274C8.84513 11.8878 8.80015 11.7525 8.72016 11.6381L6.35485 8.25744L8.29688 6.31682L11.6536 8.71588C11.7678 8.79731 11.9033 8.84361 12.0434 8.84911C12.1836 8.8546 12.3223 8.81905 12.4425 8.74682C13.3466 8.20383 14.3423 7.79184 15.397 7.53322C15.5341 7.49947 15.6583 7.42615 15.7541 7.32239C15.8498 7.21862 15.913 7.089 15.9356 6.94963L16.6008 2.87994ZM18 12.2399C14.8274 12.2399 12.24 14.8273 12.24 17.9999C12.24 21.1726 14.8274 23.7599 18 23.7599C21.1726 23.7599 23.76 21.1726 23.76 17.9999C23.76 14.8273 21.1726 12.2399 18 12.2399ZM18 13.6799C20.3944 13.6799 22.32 15.6055 22.32 17.9999C22.32 20.3943 20.3944 22.3199 18 22.3199C15.6056 22.3199 13.68 20.3943 13.68 17.9999C13.68 15.6055 15.6056 13.6799 18 13.6799Z" fill="#524E4E"/>
</g>
</svg>
