<svg width="892" height="120" viewBox="0 0 892 120" fill="none" xmlns="http://www.w3.org/2000/svg">
<rect y="29" width="534" height="58" fill="#2E2BD0"/>
<path d="M33.7 9.75V45H25.7V16.75H11V45H3V9.75H33.7ZM36.7168 32.35C36.7168 28.1167 38.0501 24.8833 40.7168 22.65C43.3835 20.3833 46.8001 19.25 50.9668 19.25C55.1335 19.25 58.5335 20.3833 61.1668 22.65C63.8335 24.8833 65.1668 28.1167 65.1668 32.35C65.1668 36.5833 63.8335 39.8333 61.1668 42.1C58.5335 44.3667 55.1335 45.5 50.9668 45.5C46.8001 45.5 43.3835 44.3833 40.7168 42.15C38.0501 39.8833 36.7168 36.6167 36.7168 32.35ZM44.7168 32.35C44.7168 34.4167 45.2668 35.9667 46.3668 37C47.4668 38 49.0001 38.5 50.9668 38.5C52.9001 38.5 54.4168 38 55.5168 37C56.6168 35.9667 57.1668 34.4167 57.1668 32.35C57.1668 30.3167 56.6168 28.8 55.5168 27.8C54.4168 26.7667 52.9001 26.25 50.9668 26.25C49.0001 26.25 47.4668 26.7667 46.3668 27.8C45.2668 28.8 44.7168 30.3167 44.7168 32.35ZM68.6738 45V19.75H84.5238L86.6238 43H88.6238L90.7238 19.75H106.624V45H98.6238V26.25L100.124 21.75H98.1238L95.4238 45H79.8238L77.1738 21.75H75.1738L76.6738 26.25V45H68.6738ZM111.619 32.35C111.619 28.1167 112.952 24.8833 115.619 22.65C118.286 20.3833 121.702 19.25 125.869 19.25C130.036 19.25 133.436 20.3833 136.069 22.65C138.736 24.8833 140.069 28.1167 140.069 32.35C140.069 36.5833 138.736 39.8333 136.069 42.1C133.436 44.3667 130.036 45.5 125.869 45.5C121.702 45.5 118.286 44.3833 115.619 42.15C112.952 39.8833 111.619 36.6167 111.619 32.35ZM119.619 32.35C119.619 34.4167 120.169 35.9667 121.269 37C122.369 38 123.902 38.5 125.869 38.5C127.802 38.5 129.319 38 130.419 37C131.519 35.9667 132.069 34.4167 132.069 32.35C132.069 30.3167 131.519 28.8 130.419 27.8C129.319 26.7667 127.802 26.25 125.869 26.25C123.902 26.25 122.369 26.7667 121.269 27.8C120.169 28.8 119.619 30.3167 119.619 32.35ZM184.24 38C187.073 38 188.49 39.4167 188.49 42.25V52H180.49V45H145.09V19.75H153.09V38H158.54V19.75H166.54V38H171.99V19.75H179.99V38H184.24ZM204.102 25.2C212.235 25.2 216.302 28.5 216.302 35.1C216.302 41.7 212.235 45 204.102 45H192.502V19.75H200.502V25.2H204.102ZM200.502 38H203.602C205.402 38 206.635 37.8167 207.302 37.45C207.969 37.0833 208.302 36.3 208.302 35.1C208.302 33.9 207.969 33.1167 207.302 32.75C206.635 32.3833 205.402 32.2 203.602 32.2H200.502V38ZM234.824 28.65C234.824 23.65 235.891 19.8333 238.024 17.2C240.191 14.5333 243.441 12.5 247.774 11.1C250.908 10.1 253.024 9.28333 254.124 8.65C255.224 7.98333 255.891 7.18333 256.124 6.25H265.124C264.924 7.91667 264.391 9.36667 263.524 10.6C262.691 11.8 261.524 12.7833 260.024 13.55C258.558 14.3167 257.158 14.9167 255.824 15.35C254.524 15.75 252.841 16.1667 250.774 16.6C247.374 17.3333 244.841 18.4 243.174 19.8C241.541 21.1667 240.474 23.1167 239.974 25.65L237.974 30.15H239.974C240.541 26.6833 241.858 24 243.924 22.1C246.024 20.2 248.724 19.25 252.024 19.25C255.858 19.25 258.974 20.4667 261.374 22.9C263.774 25.3 264.974 28.35 264.974 32.05C264.974 36.0833 263.724 39.3333 261.224 41.8C258.724 44.2667 254.958 45.5 249.924 45.5C245.091 45.5 241.358 44.0333 238.724 41.1C236.124 38.1667 234.824 34.0167 234.824 28.65ZM244.674 27.8C243.441 28.8333 242.824 30.35 242.824 32.35C242.824 34.35 243.441 35.8833 244.674 36.95C245.908 37.9833 247.658 38.5 249.924 38.5C252.191 38.5 253.924 37.9833 255.124 36.95C256.358 35.8833 256.974 34.35 256.974 32.35C256.974 30.35 256.358 28.8333 255.124 27.8C253.924 26.7667 252.191 26.25 249.924 26.25C247.658 26.25 245.908 26.7667 244.674 27.8ZM299.739 45H291.739V26L293.239 21.75H291.239L285.789 45H270.139V19.75H278.139V38.5L276.639 43H278.639L284.089 19.75H299.739V45ZM304.258 35.3H311.758C311.758 37.2 312.141 38.4667 312.908 39.1C313.674 39.7 314.991 40 316.858 40C319.658 40 321.058 39.1 321.058 37.3C321.058 36.3 320.741 35.6333 320.108 35.3C319.474 34.9667 318.541 34.8 317.308 34.8H314.808V29.3H317.308C319.474 29.3 320.558 28.5333 320.558 27C320.558 26.1333 320.258 25.55 319.658 25.25C319.058 24.9167 318.058 24.75 316.658 24.75C314.924 24.75 313.758 24.9667 313.158 25.4C312.558 25.8333 312.258 26.6667 312.258 27.9H304.758C304.758 22.1333 308.724 19.25 316.658 19.25C320.324 19.25 323.141 19.8833 325.108 21.15C327.074 22.3833 328.058 24.05 328.058 26.15C328.058 27.8833 327.558 29.1333 326.558 29.9C325.558 30.6667 324.291 31.05 322.758 31.05V33.05C324.324 33.05 325.674 33.4667 326.808 34.3C327.974 35.1333 328.558 36.45 328.558 38.25C328.558 40.45 327.524 42.2167 325.458 43.55C323.424 44.85 320.558 45.5 316.858 45.5C308.458 45.5 304.258 42.1 304.258 35.3ZM351.953 19.75H359.953V45H351.953V35.85H340.053V45H332.053V19.75H340.053V28.85H351.953V19.75ZM364.451 32.05C364.451 28.1167 365.668 25 368.101 22.7C370.568 20.4 373.785 19.25 377.751 19.25C381.718 19.25 384.935 20.3667 387.401 22.6C389.868 24.8 391.101 27.7833 391.101 31.55V34.05H371.951C371.951 35.55 372.501 36.75 373.601 37.65C374.735 38.55 376.401 39 378.601 39C380.035 39 381.235 38.75 382.201 38.25C383.168 37.75 383.768 37.0333 384.001 36.1H392.001C391.868 37.0667 391.501 38.0833 390.901 39.15C390.301 40.1833 389.468 41.1833 388.401 42.15C387.368 43.1167 385.985 43.9167 384.251 44.55C382.551 45.1833 380.668 45.5 378.601 45.5C374.001 45.5 370.485 44.2167 368.051 41.65C365.651 39.0833 364.451 35.8833 364.451 32.05ZM371.951 29.55H383.601C383.601 28.4833 383.135 27.5833 382.201 26.85C381.301 26.1167 379.818 25.75 377.751 25.75C375.685 25.75 374.201 26.1167 373.301 26.85C372.401 27.55 371.951 28.45 371.951 29.55ZM394.48 32.35C394.48 28.25 395.747 25.05 398.28 22.75C400.814 20.4167 404.147 19.25 408.28 19.25C411.947 19.25 415.08 20.2167 417.68 22.15C420.28 24.0833 421.664 26.7667 421.83 30.2H413.83C413.664 29.0333 413.08 28.0833 412.08 27.35C411.114 26.6167 409.847 26.25 408.28 26.25C406.414 26.25 404.98 26.7833 403.98 27.85C402.98 28.9167 402.48 30.4167 402.48 32.35C402.48 34.3167 402.964 35.8333 403.93 36.9C404.93 37.9667 406.38 38.5 408.28 38.5C409.847 38.5 411.114 38.1333 412.08 37.4C413.08 36.6667 413.664 35.7167 413.83 34.55H421.83C421.664 37.9833 420.28 40.6667 417.68 42.6C415.08 44.5333 411.947 45.5 408.28 45.5C404.147 45.5 400.814 44.35 398.28 42.05C395.747 39.7167 394.48 36.4833 394.48 32.35ZM444.888 19.75H453.938L442.388 43.5V51.3C442.388 52.7 442.005 53.7667 441.238 54.5C440.505 55.2333 439.455 55.5667 438.088 55.5L425.738 55.15V48.15L434.388 48.3V43.5L422.838 19.75H431.838L437.388 33.65V37.65H439.388V33.65L444.888 19.75ZM472.445 28.5H499.445V34.5H472.445V28.5ZM15.55 84.25C19.6833 84.25 23.0167 85.4167 25.55 87.75C28.0833 90.05 29.35 93.25 29.35 97.35C29.35 101.483 28.0833 104.717 25.55 107.05C23.0167 109.35 19.6833 110.5 15.55 110.5C11.8833 110.5 8.75 109.533 6.15 107.6C3.55 105.667 2.16667 102.983 2 99.55H10C10.1667 100.717 10.7333 101.667 11.7 102.4C12.7 103.133 13.9833 103.5 15.55 103.5C18.45 103.5 20.2667 102.283 21 99.85H13.5V94.85H21C20.2667 92.45 18.45 91.25 15.55 91.25C13.9833 91.25 12.7 91.6167 11.7 92.35C10.7333 93.0833 10.1667 94.0333 10 95.2H2C2.16667 91.7667 3.55 89.0833 6.15 87.15C8.75 85.2167 11.8833 84.25 15.55 84.25ZM57.3574 84.75V91.75H47.8574V110H39.8574V91.75H30.3574V84.75H57.3574ZM57.8594 97.35C57.8594 93.1167 59.1927 89.8833 61.8594 87.65C64.526 85.3833 67.9427 84.25 72.1094 84.25C76.276 84.25 79.676 85.3833 82.3094 87.65C84.976 89.8833 86.3094 93.1167 86.3094 97.35C86.3094 101.583 84.976 104.833 82.3094 107.1C79.676 109.367 76.276 110.5 72.1094 110.5C67.9427 110.5 64.526 109.383 61.8594 107.15C59.1927 104.883 57.8594 101.617 57.8594 97.35ZM65.8594 97.35C65.8594 99.4167 66.4094 100.967 67.5094 102C68.6094 103 70.1427 103.5 72.1094 103.5C74.0427 103.5 75.5594 103 76.6594 102C77.7594 100.967 78.3094 99.4167 78.3094 97.35C78.3094 95.3167 77.7594 93.8 76.6594 92.8C75.5594 91.7667 74.0427 91.25 72.1094 91.25C70.1427 91.25 68.6094 91.7667 67.5094 92.8C66.4094 93.8 65.8594 95.3167 65.8594 97.35ZM131.044 84.75V110H123.044V91.75H113.344V110H105.344V84.75H131.044ZM137.033 84.75H145.033V86.3L143.533 90.8H145.533C146.3 88.8 147.433 87.2167 148.933 86.05C150.467 84.85 152.65 84.25 155.483 84.25C158.983 84.25 161.683 85.5 163.583 88C165.483 90.5 166.433 93.6333 166.433 97.4C166.433 101.167 165.483 104.3 163.583 106.8C161.683 109.267 158.983 110.5 155.483 110.5C152.65 110.5 150.467 109.917 148.933 108.75C147.433 107.55 146.3 105.95 145.533 103.95H143.533L145.033 108.45V119.5H137.033V84.75ZM145.033 97.4C145.033 101.467 147.267 103.5 151.733 103.5C156.2 103.5 158.433 101.467 158.433 97.4C158.433 93.3 156.2 91.25 151.733 91.25C147.267 91.25 145.033 93.3 145.033 97.4ZM170.457 97.35C170.457 93.1167 171.79 89.8833 174.457 87.65C177.124 85.3833 180.54 84.25 184.707 84.25C188.874 84.25 192.274 85.3833 194.907 87.65C197.574 89.8833 198.907 93.1167 198.907 97.35C198.907 101.583 197.574 104.833 194.907 107.1C192.274 109.367 188.874 110.5 184.707 110.5C180.54 110.5 177.124 109.383 174.457 107.15C171.79 104.883 170.457 101.617 170.457 97.35ZM178.457 97.35C178.457 99.4167 179.007 100.967 180.107 102C181.207 103 182.74 103.5 184.707 103.5C186.64 103.5 188.157 103 189.257 102C190.357 100.967 190.907 99.4167 190.907 97.35C190.907 95.3167 190.357 93.8 189.257 92.8C188.157 91.7667 186.64 91.25 184.707 91.25C182.74 91.25 181.207 91.7667 180.107 92.8C179.007 93.8 178.457 95.3167 178.457 97.35ZM237.841 84.75H245.841V110H237.841V100.85H225.941V110H217.941V84.75H225.941V93.85H237.841V84.75ZM250.828 103.1C250.828 100.867 251.595 99.1167 253.128 97.85C254.661 96.55 257.261 95.65 260.928 95.15L268.878 94.05C268.878 91.85 267.195 90.75 263.828 90.75C262.228 90.75 260.995 91.0667 260.128 91.7C259.261 92.3333 258.828 93.2333 258.828 94.4H251.328C251.328 91.2667 252.495 88.8 254.828 87C257.195 85.1667 260.195 84.25 263.828 84.25C267.595 84.25 270.711 85.2167 273.178 87.15C275.645 89.0833 276.878 92 276.878 95.9V103H280.528V110H274.978C273.778 110 272.845 109.683 272.178 109.05C271.545 108.383 271.228 107.45 271.228 106.25V105.75L272.478 102.75H270.478C269.945 105.15 268.878 107.05 267.278 108.45C265.711 109.817 263.295 110.5 260.028 110.5C258.195 110.5 256.628 110.25 255.328 109.75C254.028 109.25 253.078 108.583 252.478 107.75C251.878 106.917 251.445 106.133 251.178 105.4C250.945 104.633 250.828 103.867 250.828 103.1ZM258.828 101.6C258.828 102.867 259.745 103.5 261.578 103.5C263.811 103.5 265.578 103.067 266.878 102.2C268.211 101.3 268.878 100.083 268.878 98.55L262.428 99.45C261.095 99.65 260.161 99.9 259.628 100.2C259.095 100.467 258.828 100.933 258.828 101.6ZM282.029 97.35C282.029 93.25 283.296 90.05 285.829 87.75C288.363 85.4167 291.696 84.25 295.829 84.25C299.496 84.25 302.629 85.2167 305.229 87.15C307.829 89.0833 309.213 91.7667 309.379 95.2H301.379C301.213 94.0333 300.629 93.0833 299.629 92.35C298.663 91.6167 297.396 91.25 295.829 91.25C293.963 91.25 292.529 91.7833 291.529 92.85C290.529 93.9167 290.029 95.4167 290.029 97.35C290.029 99.3167 290.513 100.833 291.479 101.9C292.479 102.967 293.929 103.5 295.829 103.5C297.396 103.5 298.663 103.133 299.629 102.4C300.629 101.667 301.213 100.717 301.379 99.55H309.379C309.213 102.983 307.829 105.667 305.229 107.6C302.629 109.533 299.496 110.5 295.829 110.5C291.696 110.5 288.363 109.35 285.829 107.05C283.296 104.717 282.029 101.483 282.029 97.35Z" fill="white"/>
</svg>
