<svg width="72" height="72" viewBox="0 0 72 72" fill="none" xmlns="http://www.w3.org/2000/svg">
<g id="g4248">
<path id="circle23423" d="M36.6329 45.6987C43.7361 45.6987 49.4944 39.9405 49.4944 32.8373C49.4944 25.7341 43.7361 19.9758 36.6329 19.9758C29.5297 19.9758 23.7715 25.7341 23.7715 32.8373C23.7715 39.9405 29.5297 45.6987 36.6329 45.6987Z" stroke="white" stroke-width="1.88976" stroke-linecap="round" stroke-linejoin="round"/>
<path id="path23535" d="M13.5342 62.8358C15.0719 58.088 18.0744 53.9494 22.1105 51.014C26.1467 48.0787 31.009 46.4976 35.9997 46.4976C40.9902 46.4976 45.8524 48.0786 49.8884 51.0137C53.9245 53.9488 56.9269 58.0871 58.4649 62.8347" stroke="white" stroke-width="1.88976" stroke-linecap="round" stroke-linejoin="round"/>
<path id="path23449" d="M36 71C55.33 71 71 55.33 71 36C71 16.67 55.33 1 36 1C16.67 1 1 16.67 1 36C1 55.33 16.67 71 36 71Z" stroke="white" stroke-width="1.88976" stroke-linecap="round" stroke-linejoin="round"/>
</g>
</svg>
