<svg width="33" height="33" viewBox="0 0 33 33" fill="none" xmlns="http://www.w3.org/2000/svg">
<path id="Vector" d="M13.1613 0C5.88508 0 0 5.75018 0 12.8596C0 19.969 5.88508 25.7192 13.1613 25.7192C15.7591 25.7192 18.1633 24.9746 20.2016 23.7099L29.7097 33L33 29.7851L23.6129 20.6368C25.3004 18.4739 26.3226 15.7938 26.3226 12.8596C26.3226 5.75018 20.4375 0 13.1613 0ZM13.1613 3.02579C18.7349 3.02579 23.2258 7.41377 23.2258 12.8596C23.2258 18.3054 18.7349 22.6934 13.1613 22.6934C7.5877 22.6934 3.09677 18.3054 3.09677 12.8596C3.09677 7.41377 7.5877 3.02579 13.1613 3.02579Z" fill="white"/>
</svg>
