<svg width="15" height="15" viewBox="0 0 15 15" fill="none" xmlns="http://www.w3.org/2000/svg">
<g id="three_dots_vertical_icon_159806 1">
<path id="Vector" fill-rule="evenodd" clip-rule="evenodd" d="M8.90625 12.1875C8.90625 12.5605 8.75809 12.9181 8.49437 13.1819C8.23065 13.4456 7.87296 13.5938 7.5 13.5938C7.12704 13.5938 6.76935 13.4456 6.50563 13.1819C6.24191 12.9181 6.09375 12.5605 6.09375 12.1875C6.09375 11.8145 6.24191 11.4569 6.50563 11.1931C6.76935 10.9294 7.12704 10.7812 7.5 10.7812C7.87296 10.7812 8.23065 10.9294 8.49437 11.1931C8.75809 11.4569 8.90625 11.8145 8.90625 12.1875ZM8.90625 7.5C8.90625 7.87296 8.75809 8.23065 8.49437 8.49437C8.23065 8.75809 7.87296 8.90625 7.5 8.90625C7.12704 8.90625 6.76935 8.75809 6.50563 8.49437C6.24191 8.23065 6.09375 7.87296 6.09375 7.5C6.09375 7.12704 6.24191 6.76935 6.50563 6.50563C6.76935 6.24191 7.12704 6.09375 7.5 6.09375C7.87296 6.09375 8.23065 6.24191 8.49437 6.50563C8.75809 6.76935 8.90625 7.12704 8.90625 7.5ZM8.90625 2.8125C8.90625 3.18546 8.75809 3.54315 8.49437 3.80687C8.23065 4.07059 7.87296 4.21875 7.5 4.21875C7.12704 4.21875 6.76935 4.07059 6.50563 3.80687C6.24191 3.54315 6.09375 3.18546 6.09375 2.8125C6.09375 2.43954 6.24191 2.08185 6.50563 1.81813C6.76935 1.55441 7.12704 1.40625 7.5 1.40625C7.87296 1.40625 8.23065 1.55441 8.49437 1.81813C8.75809 2.08185 8.90625 2.43954 8.90625 2.8125Z" fill="black"/>
</g>
</svg>
