<svg xmlns="http://www.w3.org/2000/svg" width="46" height="46" viewBox="0 0 46 46" fill="none">
    <path d="M24.875 14.1875V19.625H29.75C30.125 19.625 30.3125 20 30.3125 20.375L29.5625 23.9375C29.5625 24.125 29.1875 24.3125 29 24.3125H24.875V38H19.25V24.5H16.0625C15.6875 24.5 15.5 24.3125 15.5 23.9375V20.375C15.5 20 15.6875 19.8125 16.0625 19.8125H19.25V13.625C19.25 10.4375 21.6875 8 24.875 8H29.9375C30.3125 8 30.5 8.1875 30.5 8.5625V13.0625C30.5 13.4375 30.3125 13.625 29.9375 13.625H25.4375C25.0625 13.625 24.875 13.8125 24.875 14.1875Z" stroke="#F2F2F2" stroke-width="1.125" stroke-miterlimit="10" stroke-linecap="round"/>
</svg>