<svg xmlns="http://www.w3.org/2000/svg" width="46" height="46" viewBox="0 0 46 46" fill="none">
    <g clip-path="url(#clip0_104_278)">
        <mask id="mask0_104_278" style="mask-type:luminance" maskUnits="userSpaceOnUse" x="0" y="0" width="46" height="46">
            <path d="M0.5 0.500004H45.5V45.5H0.5V0.500004Z" fill="white"/>
        </mask>
        <g mask="url(#mask0_104_278)">
            <path d="M30.9102 23C30.9102 27.3687 27.3687 30.9102 23 30.9102C18.6313 30.9102 15.0898 27.3687 15.0898 23C15.0898 18.6313 18.6313 15.0898 23 15.0898C27.3687 15.0898 30.9102 18.6313 30.9102 23Z" stroke="#F2F2F2" stroke-width="1.125" stroke-miterlimit="10" stroke-linecap="round" stroke-linejoin="round"/>
            <path d="M12.4531 38.9082C9.54069 38.9082 7.0918 36.4593 7.0918 33.5469V12.4531C7.0918 9.5407 9.54069 7.0918 12.4531 7.0918H33.5469C36.4593 7.0918 38.9082 9.5407 38.9082 12.4531V33.5469C38.9082 36.4593 36.4593 38.9082 33.5469 38.9082H12.4531Z" stroke="#F2F2F2" stroke-width="1.125" stroke-miterlimit="10" stroke-linecap="round" stroke-linejoin="round"/>
            <path d="M33.5469 13.7715C33.5469 14.4996 32.9566 15.0898 32.2285 15.0898C31.5004 15.0898 30.9102 14.4996 30.9102 13.7715C30.9102 13.0434 31.5004 12.4531 32.2285 12.4531C32.9566 12.4531 33.5469 13.0434 33.5469 13.7715Z" stroke="#F2F2F2" stroke-width="1.125" stroke-miterlimit="10" stroke-linecap="round" stroke-linejoin="round"/>
        </g>
    </g>
    <defs>
        <clipPath id="clip0_104_278">
            <rect width="45" height="45" fill="white" transform="translate(0.5 0.5)"/>
        </clipPath>
    </defs>
</svg>