<svg xmlns="http://www.w3.org/2000/svg" width="46" height="46" viewBox="0 0 46 46" fill="none">
    <path d="M16.625 34.25H12.875V19.25H16.625V34.25Z" stroke="#F2F2F2" stroke-width="1.125" stroke-miterlimit="10" stroke-linecap="round" stroke-linejoin="round"/>
    <path d="M16.625 13.625C16.625 14.6606 15.7855 15.5 14.75 15.5C13.7145 15.5 12.875 14.6606 12.875 13.625C12.875 12.5894 13.7145 11.75 14.75 11.75C15.7855 11.75 16.625 12.5894 16.625 13.625Z" stroke="#F2F2F2" stroke-width="1.125" stroke-miterlimit="10" stroke-linecap="round" stroke-linejoin="round"/>
    <path d="M24.125 25.8125C24.125 24.2592 25.3842 23 26.9375 23C28.4908 23 29.75 24.2592 29.75 25.8125V34.25H33.5V24.1588C33.5 23.3968 33.3226 22.6451 32.9817 21.9635C31.3204 18.6409 26.7586 18.4914 24.5623 20.6878L24.125 21.125V19.25H20.375V34.25H24.125V25.8125Z" stroke="#F2F2F2" stroke-width="1.125" stroke-miterlimit="10" stroke-linecap="round" stroke-linejoin="round"/>
</svg>