<svg xmlns="http://www.w3.org/2000/svg" width="46" height="46" viewBox="0 0 46 46" fill="none">
    <path d="M13.4375 39.125C16.25 40.8125 19.625 41.75 23 41.75C33.3125 41.75 41.75 33.3125 41.75 23C41.75 12.6875 33.3125 4.25 23 4.25C12.6875 4.25 4.25 12.6875 4.25 23C4.25 26.375 5.1875 29.5625 6.6875 32.375L4.58033 40.4795C4.43429 41.0412 4.95419 41.5488 5.51224 41.3894L13.4375 39.125Z" stroke="#2E2BD0" stroke-width="1.125" stroke-miterlimit="10" stroke-linecap="round" stroke-linejoin="round"/>
    <path d="M31.4375 28.3409C31.4375 28.6447 31.3699 28.9569 31.2262 29.2606C31.0826 29.5644 30.8967 29.8513 30.6516 30.1213C30.2376 30.5769 29.7813 30.9059 29.2658 31.1169C28.7588 31.3278 28.2095 31.4375 27.618 31.4375C26.7561 31.4375 25.835 31.235 24.8633 30.8216C23.8915 30.4081 22.9197 29.8513 21.9564 29.1509C20.9846 28.4422 20.0636 27.6575 19.1847 26.7884C18.3144 25.9109 17.5285 24.9913 16.8271 24.0294C16.1342 23.0675 15.5765 22.1056 15.1709 21.1522C14.7653 20.1903 14.5625 19.2706 14.5625 18.3931C14.5625 17.8194 14.6639 17.2709 14.8667 16.7647C15.0695 16.25 15.3906 15.7775 15.8385 15.3556C16.3793 14.8241 16.9708 14.5625 17.5961 14.5625C17.8327 14.5625 18.0693 14.6131 18.2806 14.7144C18.5003 14.8156 18.6946 14.9675 18.8467 15.1869L20.8072 17.9459C20.9593 18.1569 21.0691 18.3509 21.1452 18.5366C21.2212 18.7138 21.2635 18.8909 21.2635 19.0513C21.2635 19.2538 21.2043 19.4562 21.086 19.6503C20.9762 19.8444 20.8156 20.0469 20.6128 20.2494L19.9706 20.9159C19.8777 21.0087 19.8354 21.1184 19.8354 21.2534C19.8354 21.3209 19.8439 21.38 19.8608 21.4475C19.8861 21.515 19.9115 21.5656 19.9284 21.6162C20.0805 21.8947 20.3424 22.2575 20.7142 22.6963C21.0945 23.135 21.5001 23.5822 21.9395 24.0294C22.3958 24.4766 22.8352 24.89 23.2831 25.2697C23.7225 25.6409 24.0858 25.8941 24.3732 26.0459C24.4154 26.0628 24.4661 26.0881 24.5253 26.1134C24.5929 26.1387 24.6605 26.1472 24.7365 26.1472C24.8802 26.1472 24.99 26.0966 25.083 26.0038L25.7252 25.3709C25.9364 25.16 26.1392 24.9997 26.3336 24.8984C26.5279 24.7803 26.7223 24.7212 26.9336 24.7212C27.0941 24.7212 27.2631 24.755 27.449 24.8309C27.6349 24.9069 27.8293 25.0166 28.0405 25.16L30.8375 27.1428C31.0572 27.2947 31.2093 27.4719 31.3023 27.6828C31.3868 27.8937 31.4375 28.1047 31.4375 28.3409Z" stroke="#2E2BD0" stroke-width="1.125" stroke-miterlimit="10"/>
</svg>