<svg width="25" height="25" viewBox="0 0 25 25" fill="none" xmlns="http://www.w3.org/2000/svg">
<path id="Vector" d="M23.7287 9.09972L11.009 21.664C8.90147 23.7461 5.48412 23.7461 3.37656 21.664C1.269 19.5821 1.269 16.2069 3.37656 14.1249L14.8248 2.81713C16.2302 1.4294 18.5075 1.4294 19.9129 2.81713C21.3182 4.20482 21.3182 6.45553 19.9129 7.84322L8.46457 19.151C7.76235 19.8454 6.62324 19.8454 5.92012 19.151C5.2179 18.4576 5.2179 17.3323 5.92012 16.638L16.0962 6.58668L14.8239 5.33017L4.64881 15.3823C3.24347 16.7701 3.24347 19.0207 4.64881 20.4084C6.05415 21.7962 8.33148 21.7962 9.73682 20.4084L21.1851 9.10062C23.2927 7.01864 23.2927 3.64351 21.1851 1.56149C19.0775 -0.520495 15.6602 -0.520495 13.5527 1.56149L1.46823 13.4975L1.51202 13.5412C-0.683122 16.3291 -0.490144 20.3594 2.10435 22.9214C4.69885 25.4836 8.77728 25.6754 11.6005 23.506L11.6443 23.5497L25 10.3571L23.7287 9.09972Z" fill="#7F7F7F"/>
</svg>
