<svg xmlns="http://www.w3.org/2000/svg" width="14" height="14" viewBox="0 0 10 10" fill="none">
    <path d="M6.49474 4.99982L9.69033 1.80435C10.1032 1.39148 10.1032 0.72251 9.69033 0.309647C9.27745 -0.103216 8.60845 -0.103216 8.19559 0.309647L5 3.50548L1.80441 0.310007C1.39153 -0.102856 0.722536 -0.102856 0.309658 0.310007C-0.103219 0.72287 -0.103219 1.39184 0.309658 1.80471L3.50525 5.00018L0.309658 8.19566C-0.103219 8.60852 -0.103219 9.27749 0.309658 9.69034C0.722536 10.1032 1.39153 10.1032 1.80441 9.69034L5 6.49488L8.19559 9.69034C8.60847 10.1032 9.27747 10.1032 9.69033 9.69034C10.1032 9.27748 10.1032 8.60851 9.69033 8.19566L6.49474 4.99982Z" fill="#D4D4D4"/>
</svg>